<svg xmlns="http://www.w3.org/2000/svg" width="64" height="64" viewBox="0 0 64 64" role="img" aria-label="Tillie's Treats">
  <title>Tillie's Treats</title>
  <rect width="64" height="64" rx="14" fill="#f3e9db"/>
  <g fill="none" stroke="#8a5a2b" stroke-width="3" stroke-linecap="round" stroke-linejoin="round">
    <path d="M16 34 h32 l-4 18 a4 4 0 0 1 -4 3 h-16 a4 4 0 0 1 -4 -3 z" fill="#e8d8c3"/>
    <path d="M23 37 l3 17 M32 37 v18 M41 37 l-3 17" stroke-width="2"/>
    <path d="M14 34 a10 10 0 0 1 9 -13 a11 11 0 0 1 20 0 a10 10 0 0 1 9 13 z" fill="#c98a4b"/>
    <circle cx="32" cy="14" r="4" fill="#b5443b"/>
    <path d="M32 10 q4 -5 8 -3"/>
  </g>
</svg>
